<?xml version="1.0" encoding="utf-8" ?>
<svg xmlns="http://www.w3.org/2000/svg" xmlns:xlink="http://www.w3.org/1999/xlink" width="626" height="576">
	<path fill="#67C9D5" d="M0 0L625.465 0C626.086 1.09523 625.988 2.14068 625.996 3.3661L626.004 454.997L626.001 546.509C626.001 550.746 626.499 573.274 625.81 575.328C625.734 575.557 625.58 575.797 625.465 576L0 576L0 0Z"/>
	<path fill="#B83839" d="M400.726 71.7152C408.427 73.5943 416.161 75.7583 423.928 77.3133C423.782 78.2553 423.605 78.6954 423.969 79.5914L424.701 80.1388C425.273 80.896 425.184 81.4673 425.184 82.4177C425.187 92.2569 424.065 102.275 423.569 112.117L422.455 131.998C422.233 136.247 422.25 140.664 421.663 144.876C421.033 149.393 419.453 152.025 415.805 154.754C411.643 157.867 406.863 160.398 402.408 163.078C393.99 168.142 385.514 173.162 377.205 178.402C387.042 183.471 397.287 187.764 407.251 192.583Q423.745 182.689 440.371 173.018C444.754 170.43 452.033 165.399 456.492 163.927L456.95 164.059L456.776 163.885L456.785 164.367L457.01 164.16C459.482 164.667 462.497 162.378 464.79 161.409L465.631 163.299Q468.357 169.435 471.164 175.535C471.912 177.239 472.623 179.528 473.721 180.999L473.866 181.858C472.388 182.936 470.922 184.008 469.521 185.187C469.649 185.58 469.965 186.07 469.749 186.459C469.303 187.263 420.407 216.279 414.683 219.261C413.25 220.008 411.723 220.651 410.128 220.948C403.375 222.207 391.459 214.152 384.638 211.904C390.217 221.769 395.003 233.176 400.726 242.641C406.917 245.174 454.059 259.544 454.927 261.058C454.987 261.162 455.013 261.281 455.055 261.393C455.409 262.424 455.714 262.937 456.732 263.407C457.58 263.799 458.493 264.095 459.383 264.378C460.419 262.559 461.271 262.065 463.253 261.516C464.581 261.647 465.581 261.924 466.799 262.47C467.884 263.647 468.783 264.629 468.726 266.317C468.672 267.892 467.952 269.637 467.469 271.139C468.445 271.537 469.092 271.759 469.516 272.823C470.542 275.394 469.55 278.733 468.364 281.12C467.678 282.501 466.211 285.096 464.728 285.592C464.292 285.738 464.101 285.473 463.735 285.261C463.643 284.995 463.498 284.683 463.464 284.406C462.776 286.948 462.322 289.789 459.797 291.186Q459.573 291.309 459.337 291.408Q459.101 291.506 458.856 291.579Q458.611 291.653 458.359 291.699Q458.108 291.746 457.853 291.766Q457.598 291.786 457.342 291.779Q457.087 291.772 456.833 291.738Q456.58 291.705 456.331 291.644Q456.083 291.583 455.842 291.497C454.475 291.004 453.581 290.007 453.004 288.698C452.661 287.919 452.425 287.293 452.674 286.447C450.854 285.58 449.331 284.907 447.264 284.926C446.938 285.256 446.7 285.695 446.208 285.725C444.986 285.801 391.583 268.302 386.411 266.299C384.326 265.492 381.981 264.465 380.351 262.899C377.167 259.839 375.23 253.989 373.17 250.048Q368.849 241.746 364.341 233.543L364.382 293.98C364.389 301.39 364.661 308.812 364.529 316.219C364.025 316.667 363.975 316.67 363.281 316.698C358.349 316.9 353.347 316.72 348.405 316.72L319.038 316.717L290.803 316.721C285.538 316.73 280.217 316.914 274.957 316.698C274.923 316.696 274.89 316.691 274.857 316.688L275.015 253.978C275.022 244.607 275.198 235.211 274.95 225.844C272.332 231.239 269.49 236.651 266.662 241.944C265.353 244.393 263.843 246.482 261.37 247.878C257.37 250.135 252.619 251.275 248.264 252.662L235.477 256.865L210.886 264.914C206.968 266.192 202.991 267.748 199.011 268.783C198.257 268.979 197.886 269.054 197.215 268.654C195.324 268.346 193.477 267.96 191.627 268.665C187.877 262.268 184.609 255.109 181.759 248.262C182.678 248.152 183.505 247.958 184.386 247.669C185.991 247.142 188.571 246.245 189.368 244.66L189.644 244.02C192.474 242.047 200.971 239.949 204.657 238.752L225.947 231.774C231.851 229.869 237.849 228.088 243.616 225.798C246.87 220.524 249.718 214.515 252.318 208.88C248.084 211.271 244.201 214.32 239.908 216.59C235.928 218.695 233.108 218.962 228.819 217.588C225.422 216.5 222.148 214.911 218.867 213.516L201.758 206.251L182.396 198.044C178.538 196.424 174.54 194.922 170.795 193.06C170.001 192.666 169.366 192.371 168.944 191.543C171.091 187.098 172.833 182.439 174.796 177.906L175.06 177.159L176.045 175.032C177.076 172.566 178.017 169.995 179.263 167.631C185.101 169.799 190.843 172.48 196.581 174.915L231.783 189.922C235.274 188.074 238.615 185.707 241.945 183.579C246.786 180.487 251.683 177.459 256.411 174.199C248.349 169.755 240.04 165.724 231.832 161.558C227.741 159.481 223.224 157.56 219.46 154.925C217.784 153.752 216.241 152.423 215.362 150.54C214.443 148.573 213.927 146.361 213.557 144.231C211.931 134.867 211.091 125.235 209.852 115.797C208.483 105.366 206.706 94.8213 205.703 84.3637C205.634 83.6526 205.595 82.9984 205.898 82.3338C206.114 81.8595 206.624 81.7892 207.072 81.5881C207.499 78.7143 206.311 75.8348 206.5 73.0034L206.916 72.7799Q215.124 72.8372 223.331 72.7192C225.51 72.7708 227.714 72.8713 229.884 72.6155C229.808 74.2874 229.493 76.7352 230.538 78.1653C230.627 78.2876 230.742 78.389 230.844 78.5009L231.952 78.7481C232.886 80.2613 238.475 127.754 239.495 135.509C249.081 139.607 258.399 144.95 267.669 149.72C271.425 151.653 275.558 154.301 279.623 155.381C284.122 156.576 290.845 156.004 295.151 154.248C296.055 153.879 296.933 153.453 297.819 153.043C303.213 150.119 304.954 148.661 307.052 142.76C314.92 146.234 323.074 146.675 331.145 143.55Q332.313 143.095 333.445 142.558C334.611 145.888 338.911 151.208 342.087 152.795C342.192 152.848 342.303 152.89 342.412 152.937C344.171 153.913 345.89 154.696 347.854 155.153C351.809 156.073 358.325 156.592 362.283 155.523C366.455 154.397 372.01 150.098 375.785 147.795C382.353 143.789 388.961 139.862 395.483 135.779C395.706 129.861 397.968 80.9721 398.817 79.2782C398.999 78.9138 399.756 78.8127 400.138 78.6917C401.125 76.8925 400.759 73.6973 400.726 71.7152Z"/>
	<path fill="#E0C99C" d="M333.445 142.558C334.611 145.888 338.911 151.208 342.087 152.795C342.192 152.848 342.303 152.89 342.412 152.937C341.839 154.702 341.288 156.419 340.298 158.004C337.219 162.933 331.779 165.724 326.241 166.944C319.193 168.495 311.08 167.478 304.989 163.462C301.155 160.935 298.76 157.538 297.819 153.043C303.213 150.119 304.954 148.661 307.052 142.76C314.92 146.234 323.074 146.675 331.145 143.55Q332.313 143.095 333.445 142.558Z"/>
	<path fill="#225B7B" d="M463.253 261.516C464.581 261.647 465.581 261.924 466.799 262.47C467.884 263.647 468.783 264.629 468.726 266.317C468.672 267.892 467.952 269.637 467.469 271.139C468.445 271.537 469.092 271.759 469.516 272.823C470.542 275.394 469.55 278.733 468.364 281.12C467.678 282.501 466.211 285.096 464.728 285.592C464.292 285.738 464.101 285.473 463.735 285.261C463.643 284.995 463.498 284.683 463.464 284.406C462.776 286.948 462.322 289.789 459.797 291.186Q459.573 291.309 459.337 291.408Q459.101 291.506 458.856 291.579Q458.611 291.653 458.359 291.699Q458.108 291.746 457.853 291.766Q457.598 291.786 457.342 291.779Q457.087 291.772 456.833 291.738Q456.58 291.705 456.331 291.644Q456.083 291.583 455.842 291.497C454.475 291.004 453.581 290.007 453.004 288.698C452.661 287.919 452.425 287.293 452.674 286.447L459.383 264.378C460.419 262.559 461.271 262.065 463.253 261.516Z"/>
	<path fill="#E0C99C" d="M467.469 271.139C468.445 271.537 469.092 271.759 469.516 272.823C470.542 275.394 469.55 278.733 468.364 281.12C467.678 282.501 466.211 285.096 464.728 285.592C464.292 285.738 464.101 285.473 463.735 285.261C463.643 284.995 463.498 284.683 463.464 284.406Q465.389 277.749 467.469 271.139Z"/>
	<path fill="#E0C99C" d="M223.331 72.7192C225.51 72.7708 227.714 72.8713 229.884 72.6155C229.808 74.2874 229.493 76.7352 230.538 78.1653C230.627 78.2876 230.742 78.389 230.844 78.5009C227.849 79.397 210.074 81.7923 207.072 81.5881C207.499 78.7143 206.311 75.8348 206.5 73.0034L206.916 72.7799Q215.124 72.8372 223.331 72.7192Z"/>
	<path fill="#E0C99C" d="M189.368 244.66C192.091 252.58 194.814 260.629 197.215 268.654C195.324 268.346 193.477 267.96 191.627 268.665C187.877 262.268 184.609 255.109 181.759 248.262C182.678 248.152 183.505 247.958 184.386 247.669C185.991 247.142 188.571 246.245 189.368 244.66Z"/>
	<path fill="#E0C99C" d="M457.01 164.16C459.482 164.667 462.497 162.378 464.79 161.409L465.631 163.299Q468.357 169.435 471.164 175.535C471.912 177.239 472.623 179.528 473.721 180.999L473.866 181.858C472.388 182.936 470.922 184.008 469.521 185.187C464.931 178.564 461.162 171.093 457.01 164.16Z"/>
	<path fill="#E0C99C" d="M447.264 284.926C447.526 282.497 453.762 264.226 455.055 261.393C455.409 262.424 455.714 262.937 456.732 263.407C457.58 263.799 458.493 264.095 459.383 264.378L452.674 286.447C450.854 285.58 449.331 284.907 447.264 284.926Z"/>
	<path fill="#E0C99C" d="M400.726 71.7152C408.427 73.5943 416.161 75.7583 423.928 77.3133C423.782 78.2553 423.605 78.6954 423.969 79.5914L424.701 80.1388Q416.805 79.6913 408.903 79.3719C406.082 79.2408 402.879 79.348 400.138 78.6917C401.125 76.8925 400.759 73.6973 400.726 71.7152Z"/>
	<path fill="#4F3030" d="M274.857 316.688C274.89 316.691 274.923 316.696 274.957 316.698C280.217 316.914 285.538 316.73 290.803 316.721L319.038 316.717L348.405 316.72C353.347 316.72 358.349 316.9 363.281 316.698C363.975 316.67 364.025 316.667 364.529 316.219C364.834 321.403 364.682 326.673 364.678 331.867L364.653 357.435L364.639 435.496L364.651 490.978L364.661 507.966C364.662 511.607 364.825 515.346 364.429 518.968Q364.349 519.693 364.216 520.409Q364.082 521.126 363.894 521.831Q363.707 522.535 363.467 523.224Q363.227 523.912 362.936 524.581Q362.645 525.249 362.305 525.894Q361.965 526.539 361.577 527.156Q361.189 527.773 360.755 528.36Q360.322 528.946 359.846 529.498Q359.226 530.203 358.54 530.843Q357.853 531.484 357.107 532.053Q356.36 532.622 355.562 533.115Q354.763 533.608 353.919 534.019Q353.075 534.431 352.195 534.757Q351.315 535.083 350.406 535.32Q349.498 535.558 348.571 535.704Q347.644 535.851 346.707 535.905Q346.229 535.939 345.749 535.948Q345.27 535.958 344.791 535.943Q344.311 535.929 343.833 535.89Q343.355 535.851 342.88 535.789Q342.405 535.726 341.933 535.639Q341.461 535.553 340.995 535.443Q340.528 535.332 340.068 535.199Q339.607 535.065 339.154 534.908Q338.701 534.752 338.256 534.572Q337.811 534.393 337.376 534.192Q336.941 533.99 336.516 533.767Q336.092 533.544 335.679 533.3Q335.267 533.056 334.867 532.791Q334.467 532.526 334.081 532.242Q333.695 531.957 333.324 531.654Q332.952 531.35 332.597 531.028C328.669 527.441 326.618 522.609 326.415 517.338C326.184 511.353 326.359 505.298 326.361 499.306L326.376 465.505L326.386 382.306C326.387 366.804 326.553 351.281 326.325 335.781C321.389 333.488 318.162 333.542 313.009 334.976L313.053 462.038L313.05 499.649C313.048 506.013 313.578 512.91 312.784 519.217C312.231 523.613 310.717 527.066 307.585 530.235Q307.249 530.578 306.896 530.903Q306.543 531.229 306.175 531.537Q305.806 531.844 305.423 532.133Q305.039 532.422 304.642 532.691Q304.245 532.961 303.834 533.21Q303.424 533.459 303.001 533.687Q302.579 533.916 302.146 534.122Q301.713 534.329 301.27 534.515Q300.827 534.7 300.375 534.862Q299.924 535.025 299.465 535.165Q299.005 535.305 298.54 535.422Q298.074 535.539 297.603 535.632Q297.133 535.726 296.658 535.796Q296.183 535.865 295.705 535.911Q295.227 535.958 294.748 535.98Q294.268 536.002 293.788 536Q292.832 535.99 291.882 535.886Q290.931 535.782 289.996 535.585Q289.06 535.388 288.149 535.1Q287.237 534.811 286.359 534.435Q285.48 534.058 284.643 533.597Q283.805 533.135 283.017 532.594Q282.229 532.052 281.498 531.436Q280.768 530.819 280.101 530.134C277.25 527.214 275.519 523.326 274.999 519.295C274.21 513.173 274.844 505.896 274.846 499.655L274.847 457.392L274.857 316.688Z"/>
	<path fill="#4F3030" d="M282.857 91.4552C283.524 87.4029 284.085 83.1884 285.356 79.2728C286.082 77.0351 287.456 74.8246 287.885 72.522C288.414 69.6838 287.565 66.8858 288.701 64.1189C289.493 62.1895 290.92 60.5256 292.61 59.3223C301.588 52.929 321.063 54.6457 331.607 56.6674C336.689 57.6419 341.366 58.8038 346.595 58.7384L345.6 61.8625C348.596 60.7233 351.428 59.2795 354.292 57.8503C354.254 60.7653 353.97 63.1828 352.979 65.9318C352.456 67.3839 351.619 68.9237 351.485 70.4661C352.321 70.6024 352.63 69.8737 353.272 70.3487C353.31 71.6742 352.845 72.9248 352.478 74.1857C356.868 78.636 357.97 85.8416 358.193 91.8676C358.197 92.0012 358.187 92.1348 358.184 92.2684C359.914 95.8364 359.59 99.8315 358.331 103.507C357.476 106.007 356.014 108.387 353.729 109.794C353.006 110.122 352.286 110.456 351.56 110.775C350.149 121.834 346.97 132.611 337.831 139.754C336.456 140.829 334.957 141.694 333.445 142.558Q332.313 143.095 331.145 143.55C323.074 146.675 314.92 146.234 307.052 142.76C305.452 141.895 303.865 140.934 302.409 139.841C293.215 132.936 290.128 121.99 288.58 111.125C287.293 110.478 285.921 109.852 284.878 108.837C282.018 106.051 280.272 101.659 280.372 97.6633C280.427 95.4819 281.272 92.9869 282.857 91.4552Z"/>
	<path fill="#F0D296" d="M282.857 91.4552C285.414 92.1082 286.673 93.0562 288.251 95.1783C288.198 100.488 288.074 105.831 288.58 111.125C287.293 110.478 285.921 109.852 284.878 108.837C282.018 106.051 280.272 101.659 280.372 97.6633C280.427 95.4819 281.272 92.9869 282.857 91.4552Z"/>
	<path fill="#E0C99C" d="M351.958 96.0882C352.677 94.963 353.509 93.6539 354.618 92.8824C355.811 92.0527 356.79 92.0702 358.184 92.2684C359.914 95.8364 359.59 99.8315 358.331 103.507C357.476 106.007 356.014 108.387 353.729 109.794C353.379 109.346 353.477 109.517 353.252 109.086C352.832 108.278 352.439 107.649 351.856 106.948C351.845 103.328 351.98 99.7104 351.958 96.0882Z"/>
	<path fill="#E0C99C" d="M351.856 106.948C352.439 107.649 352.832 108.278 353.252 109.086C353.477 109.517 353.379 109.346 353.729 109.794C353.006 110.122 352.286 110.456 351.56 110.775L351.856 106.948Z"/>
	<path fill="#B83839" d="M303.265 118.042C301.787 117.133 300.514 116.212 299.368 114.885C295.661 110.59 292.765 102.053 294.194 96.459C295.795 90.1874 298.808 87.9826 299.392 80.1686C305.963 84.1669 312.376 85.9565 319.971 86.7687C328.809 86.8579 336.082 84.8116 343.647 80.2397C343.925 83.212 344.184 86.191 344.627 89.1441C346.008 98.341 347.647 106.711 341.022 114.584C339.837 115.993 338.499 117.11 336.963 118.116C331.003 115.841 325.671 114.592 319.245 114.614C313.607 114.717 308.499 116.073 303.265 118.042Z"/>
	<path fill="#E0C99C" d="M319.971 86.7687C328.809 86.8579 336.082 84.8116 343.647 80.2397C343.925 83.212 344.184 86.191 344.627 89.1441C346.008 98.341 347.647 106.711 341.022 114.584C339.837 115.993 338.499 117.11 336.963 118.116C331.003 115.841 325.671 114.592 319.245 114.614L319.783 114.244C320.218 112.916 320.277 99.5743 319.785 98.0859L318.345 97.5035C319.963 97.6907 321.58 97.6613 323.206 97.6616C323.641 99.2351 324.247 100.636 325.338 101.875C326.942 103.697 329.151 104.919 331.596 105.055C339.078 105.468 338.997 99.4382 340.758 98.091C341.755 97.3283 343.234 98.0988 344.298 97.1004C344.489 96.4017 344.493 96.057 344.316 95.3544C343.304 94.631 341.692 95.1409 340.989 94.4442C338.793 92.2679 338.567 89.2311 335.291 87.8081C333.093 86.8532 330.418 87.3813 328.267 88.2456C325.443 89.3807 324.141 92.2547 322.984 94.8506L319.761 94.8588C320.453 92.6567 319.991 89.1166 319.971 86.7687Z"/>
	<path fill="#F0D296" d="M303.265 118.042C301.787 117.133 300.514 116.212 299.368 114.885C295.661 110.59 292.765 102.053 294.194 96.459C295.795 90.1874 298.808 87.9826 299.392 80.1686C305.963 84.1669 312.376 85.9565 319.971 86.7687C319.991 89.1166 320.453 92.6567 319.761 94.8588C318.883 94.8495 317.967 95.0065 317.225 94.5201C315.92 91.4345 314.939 89.362 311.617 87.9953C309.452 87.1045 307.018 87.2514 304.918 88.254C301.999 89.6475 300.7 91.8642 299.652 94.7569C298.348 94.725 296.796 94.6583 295.785 95.6512C295.518 95.9132 295.653 96.1251 295.688 96.4621C296.888 97.6329 297.531 97.7937 299.182 97.8847C302.123 100.173 301.037 103.177 305.709 104.549C307.016 104.933 308.384 105.178 309.749 105.038C312.025 104.805 313.701 103.499 315.066 101.74C315.621 101.026 317.18 97.7337 317.915 97.5371C318.054 97.5 318.202 97.5147 318.345 97.5035L319.785 98.0859C320.277 99.5743 320.218 112.916 319.783 114.244L319.245 114.614C313.607 114.717 308.499 116.073 303.265 118.042Z"/>
	<path fill="#F0D296" d="M306.823 89.7984Q307.037 89.7439 307.253 89.7037Q307.47 89.6634 307.689 89.6377Q307.908 89.612 308.128 89.6008Q308.348 89.5897 308.568 89.5932Q308.789 89.5967 309.008 89.6148Q309.228 89.633 309.446 89.6657Q309.664 89.6984 309.879 89.7455Q310.094 89.7926 310.306 89.8539Q310.518 89.9152 310.725 89.9904Q310.932 90.0656 311.134 90.1545Q311.335 90.2433 311.531 90.3453Q311.726 90.4473 311.914 90.5621Q312.102 90.6769 312.283 90.8039Q312.463 90.931 312.634 91.0697Q312.805 91.2084 312.967 91.3582Q313.129 91.508 313.28 91.6682Q313.431 91.8284 313.572 91.9983Q313.712 92.1682 313.841 92.3471Q313.97 92.526 314.087 92.713Q314.203 92.9 314.307 93.0944Q314.411 93.2887 314.502 93.4896Q314.593 93.6905 314.67 93.8969Q314.748 94.1033 314.811 94.3145Q314.875 94.5256 314.924 94.7405Q314.973 94.9553 315.008 95.173Q315.043 95.3907 315.063 95.6102Q315.084 95.8297 315.089 96.0501Q315.095 96.2705 315.086 96.4907Q315.077 96.711 315.054 96.9302Q315.03 97.1494 314.992 97.3666Q314.954 97.5837 314.902 97.7979Q314.849 98.012 314.783 98.2222Q314.716 98.4324 314.636 98.6377Q314.556 98.843 314.462 99.0425Q314.368 99.242 314.262 99.4348Q314.155 99.6277 314.035 99.813Q313.916 99.9983 313.785 100.175Q313.653 100.352 313.51 100.52Q313.367 100.688 313.214 100.846Q313.06 101.004 312.896 101.151Q312.732 101.299 312.559 101.435Q312.386 101.571 312.204 101.696Q312.022 101.82 311.832 101.932Q311.642 102.044 311.445 102.143Q311.249 102.242 311.046 102.328Q310.843 102.414 310.634 102.486Q310.426 102.559 310.214 102.617Q310.001 102.675 309.785 102.719Q309.628 102.751 309.47 102.775Q309.311 102.8 309.152 102.816Q308.993 102.833 308.833 102.842Q308.673 102.851 308.513 102.852Q308.353 102.853 308.193 102.847Q308.033 102.84 307.873 102.826Q307.714 102.812 307.555 102.79Q307.396 102.768 307.239 102.738Q307.081 102.709 306.926 102.671Q306.77 102.634 306.616 102.59Q306.462 102.545 306.311 102.493Q306.159 102.441 306.01 102.382Q305.861 102.322 305.716 102.256Q305.57 102.19 305.428 102.116Q305.285 102.043 305.146 101.963Q305.008 101.883 304.873 101.796Q304.738 101.709 304.608 101.616Q304.478 101.523 304.352 101.423Q304.227 101.324 304.106 101.219Q303.985 101.113 303.87 101.002Q303.754 100.891 303.644 100.775Q303.534 100.658 303.43 100.537Q303.326 100.415 303.227 100.289Q303.129 100.162 303.037 100.031Q302.945 99.8998 302.86 99.7643Q302.774 99.6289 302.695 99.4895Q302.616 99.3501 302.544 99.207Q302.472 99.064 302.407 98.9176Q302.342 98.7712 302.284 98.6219Q302.226 98.4725 302.175 98.3205Q302.124 98.1686 302.081 98.0143Q302.038 97.8601 302.002 97.7039Q301.966 97.5477 301.938 97.39Q301.91 97.2323 301.889 97.0735Q301.869 96.9146 301.856 96.7549Q301.843 96.5952 301.838 96.4351Q301.833 96.275 301.835 96.1148Q301.838 95.9546 301.848 95.7947Q301.858 95.6348 301.877 95.4757Q301.895 95.3165 301.92 95.1583Q301.946 95.0002 301.979 94.8435Q302.013 94.6868 302.053 94.5319Q302.094 94.377 302.143 94.2242Q302.191 94.0715 302.246 93.9212Q302.302 93.771 302.365 93.6236Q302.427 93.4762 302.497 93.332Q302.567 93.1878 302.644 93.0472Q302.721 92.9066 302.804 92.7698Q302.887 92.633 302.977 92.5004Q303.067 92.3679 303.163 92.2398Q303.26 92.1117 303.362 91.9884Q303.464 91.8651 303.572 91.7469Q303.68 91.6287 303.794 91.5159Q303.908 91.4031 304.027 91.2958Q304.146 91.1886 304.27 91.0873Q304.394 90.9859 304.523 90.8907Q304.652 90.7955 304.785 90.7066Q304.918 90.6177 305.055 90.5353Q305.193 90.453 305.334 90.3774Q305.475 90.3018 305.62 90.233Q305.765 90.1643 305.912 90.1027Q306.06 90.041 306.211 89.9866Q306.362 89.9322 306.515 89.8851Q306.668 89.838 306.823 89.7984Z"/>
	<path fill="#E0C99C" d="M330.613 89.7388Q330.828 89.6934 331.047 89.6623Q331.265 89.6313 331.484 89.6149Q331.704 89.5984 331.924 89.5966Q332.144 89.5948 332.364 89.6076Q332.584 89.6204 332.802 89.6478Q333.021 89.6752 333.237 89.717Q333.453 89.7589 333.666 89.815Q333.879 89.8712 334.088 89.9413Q334.297 90.0115 334.5 90.0954Q334.704 90.1793 334.902 90.2765Q335.099 90.3737 335.29 90.4839Q335.481 90.594 335.664 90.7166Q335.847 90.8392 336.021 90.9737Q336.195 91.1081 336.36 91.2539Q336.526 91.3997 336.681 91.5561Q336.836 91.7125 336.98 91.8789Q337.124 92.0453 337.257 92.2209Q337.39 92.3965 337.511 92.5806Q337.632 92.7646 337.741 92.9563Q337.849 93.148 337.945 93.3465Q338.04 93.545 338.122 93.7494Q338.205 93.9537 338.273 94.1631Q338.341 94.3725 338.396 94.586Q338.45 94.7995 338.49 95.0161Q338.53 95.2327 338.555 95.4515Q338.581 95.6703 338.592 95.8903Q338.603 96.1103 338.599 96.3306Q338.595 96.5508 338.577 96.7703Q338.559 96.9899 338.526 97.2077Q338.493 97.4255 338.446 97.6406Q338.398 97.8558 338.337 98.0673Q338.275 98.2788 338.2 98.4858Q338.125 98.6927 338.036 98.8942Q337.947 99.0957 337.844 99.2908Q337.742 99.486 337.627 99.6739Q337.512 99.8618 337.385 100.042Q337.258 100.221 337.119 100.393Q336.981 100.564 336.831 100.725Q336.681 100.886 336.521 101.037Q336.36 101.188 336.19 101.329Q336.021 101.469 335.842 101.597Q335.663 101.726 335.476 101.842Q335.289 101.958 335.095 102.062Q334.9 102.166 334.699 102.256Q334.499 102.347 334.292 102.424Q334.086 102.501 333.875 102.564Q333.664 102.627 333.449 102.676Q333.234 102.724 333.017 102.759Q332.859 102.784 332.7 102.802Q332.541 102.819 332.381 102.829Q332.222 102.838 332.062 102.84Q331.902 102.842 331.742 102.837Q331.582 102.831 331.423 102.818Q331.264 102.804 331.105 102.783Q330.947 102.762 330.789 102.733Q330.632 102.704 330.476 102.668Q330.32 102.632 330.167 102.588Q330.013 102.544 329.861 102.493Q329.71 102.442 329.561 102.384Q329.412 102.325 329.266 102.26Q329.12 102.194 328.978 102.122Q328.835 102.049 328.696 101.97Q328.557 101.89 328.422 101.804Q328.288 101.719 328.157 101.626Q328.026 101.534 327.9 101.435Q327.774 101.337 327.653 101.232Q327.532 101.128 327.416 101.018Q327.3 100.907 327.19 100.792Q327.08 100.676 326.975 100.555Q326.87 100.434 326.771 100.308Q326.673 100.183 326.58 100.052Q326.487 99.9217 326.401 99.7869Q326.315 99.6522 326.236 99.5134Q326.156 99.3747 326.083 99.2322Q326.01 99.0898 325.945 98.944Q325.879 98.7982 325.82 98.6494Q325.761 98.5007 325.71 98.3492Q325.658 98.1977 325.614 98.044Q325.57 97.8902 325.534 97.7345Q325.497 97.5788 325.468 97.4215Q325.439 97.2642 325.418 97.1057Q325.396 96.9472 325.382 96.7878Q325.369 96.6284 325.363 96.4686Q325.357 96.3087 325.358 96.1487Q325.36 95.9888 325.369 95.8291Q325.379 95.6694 325.396 95.5104Q325.413 95.3513 325.438 95.1933Q325.463 95.0352 325.495 94.8786Q325.527 94.7219 325.567 94.567Q325.607 94.4121 325.654 94.2593Q325.702 94.1065 325.756 93.9562Q325.811 93.8058 325.873 93.6583Q325.935 93.5108 326.004 93.3664Q326.072 93.222 326.148 93.0812Q326.224 92.9403 326.306 92.8032Q326.389 92.6662 326.478 92.5333Q326.567 92.4004 326.662 92.2719Q326.758 92.1435 326.859 92.0198Q326.96 91.8961 327.068 91.7774Q327.175 91.6588 327.288 91.5454Q327.401 91.4321 327.519 91.3243Q327.637 91.2166 327.76 91.1147Q327.884 91.0127 328.012 90.9169Q328.14 90.821 328.272 90.7315Q328.405 90.6419 328.541 90.5589Q328.678 90.4758 328.819 90.3995Q328.959 90.3231 329.103 90.2536Q329.247 90.1841 329.395 90.1217Q329.542 90.0592 329.692 90.004Q329.842 89.9487 329.995 89.9008Q330.147 89.8529 330.302 89.8123Q330.457 89.7718 330.613 89.7388Z"/>
	<path fill="#FBFCFC" d="M129.01 250.101C137.555 245.64 146.427 241.721 155.124 237.562C160.94 234.782 166.737 231.524 172.752 229.218C174.514 234.605 178.886 243.129 181.759 248.262C184.609 255.109 187.877 262.268 191.627 268.665C194.188 275.149 198.006 282.773 201.235 289.006C196.736 290.76 192.362 293.038 188 295.12C177.911 299.936 167.942 305.046 157.768 309.676C152.01 296.636 145.471 283.772 139.172 270.98C135.745 264.019 132.687 256.948 129.01 250.101Z"/>
	<path fill="#E2E3E6" d="M153.089 263.399C158.45 260.696 163.906 258.154 169.298 255.507C172.58 253.896 176.093 251.788 179.538 250.664C180.56 251.224 181.302 253.972 182.082 255.11C182.128 255.177 182.177 255.243 182.224 255.31C182.251 255.443 182.275 255.576 182.304 255.709C182.7 257.489 184.736 259.436 184.456 261.233C183.58 262.653 180.141 264.441 178.496 264.883C178.313 264.932 178.121 264.943 177.934 264.973C175.782 266.464 172.822 267.776 170.357 268.666C169.317 269.412 167.354 270.61 166.099 270.763C165.021 271.477 164.104 271.891 162.856 272.226C159.345 274.847 153.662 276.867 149.631 278.807C148.455 279.13 147.29 279.94 146.08 280.332L145.73 280.112L146.136 279.106L145.945 278.738C145.457 278.814 145.04 278.852 144.547 278.819C144.303 278.051 144.241 278.047 144.554 277.316L144.664 277.033C144.364 277.013 144.065 277.005 143.765 276.995C143.56 276.708 143.473 276.605 143.299 276.251C142.925 275.488 142.374 274.345 142.618 273.552L143.307 273.276C143.787 272.905 143.985 272.718 144.186 272.141C143.522 271.724 142.66 271.891 141.882 271.889L141.242 272.157C140.779 271.482 140.524 270.714 140.216 269.959L140.602 269.268C140.867 268.667 141.269 268.356 141.756 267.94L141.969 267.76C141.265 267.85 140.557 267.9 139.849 267.957C141.844 266.854 151.478 262.781 152.099 261.756C152.381 262.466 152.48 262.897 153.089 263.399Z"/>
	<path fill="#CBE7EA" d="M152.099 261.756C152.381 262.466 152.48 262.897 153.089 263.399C150.216 264.093 144.407 267.563 141.473 268.996L140.602 269.268C140.867 268.667 141.269 268.356 141.756 267.94L141.969 267.76C141.265 267.85 140.557 267.9 139.849 267.957C141.844 266.854 151.478 262.781 152.099 261.756Z"/>
	<path fill="#E8E6F1" d="M146.11 272.747C146.587 272.833 146.949 272.894 147.391 273.101L147.574 273.633C146.71 274.23 145.851 274.636 144.889 275.054L145.046 275.446C145.23 275.458 145.416 275.483 145.598 275.456C146.389 275.338 147.9 275.024 148.584 275.315C147.997 276.164 147.618 276.404 146.697 276.853C146.348 277.023 146.136 277.186 145.874 277.469L144.554 277.316L144.664 277.033C144.364 277.013 144.065 277.005 143.765 276.995C143.56 276.708 143.473 276.605 143.299 276.251C142.925 275.488 142.374 274.345 142.618 273.552L143.307 273.276C143.423 273.351 143.529 273.447 143.657 273.5C144.372 273.8 145.46 273.042 146.11 272.747Z"/>
	<path fill="#E8E6F1" d="M149.114 277.038L149.519 277.583L149.631 278.807C148.455 279.13 147.29 279.94 146.08 280.332L145.73 280.112L146.136 279.106L145.945 278.738C145.457 278.814 145.04 278.852 144.547 278.819C144.303 278.051 144.241 278.047 144.554 277.316L145.874 277.469C146.897 277.143 148.047 277.13 149.114 277.038Z"/>
	<path fill="#E8E6F1" d="M141.473 268.996C142.102 269.291 141.971 269.369 142.685 269.15C143.4 268.93 144.089 268.892 144.831 268.863L145.175 269.054C145.146 269.636 145.172 269.758 144.68 270.152C143.755 270.892 142.61 270.836 141.882 271.889L141.242 272.157C140.779 271.482 140.524 270.714 140.216 269.959L140.602 269.268L141.473 268.996Z"/>
	<path fill="#E8E6F1" d="M148.022 274.171C148.872 274.108 149.752 273.741 150.575 274.07L150.378 274.829C150.391 274.502 150.416 274.71 150.09 274.269L148.022 274.171Z"/>
	<path fill="#E2E3E6" d="M175.096 286.728L175.416 286.012C173.792 285.036 173.834 287.301 173.001 283.617C172.908 283.205 172.878 282.785 172.841 282.365L171.815 281.974C171.776 281.589 171.65 281.426 171.934 281.113C172.641 280.334 188.857 272.468 189.907 272.341C191.513 274.864 195.999 284.216 196.872 286.939C194.421 288.529 184.835 293.575 182.279 293.8C182.174 293.956 182.091 294.13 181.964 294.269C181.304 294.99 179.18 295.756 178.231 295.634C177.674 294.567 177.675 293.459 177.585 292.28C177.142 292.149 176.734 292.004 176.306 291.835C176.242 290.826 176.902 291.025 177.299 290.12L177.016 289.771C176.537 289.917 176.344 289.945 175.821 289.925C175.322 288.004 174.656 288.197 174.395 287.284L175.096 286.728Z"/>
	<path fill="#E2E3E6" d="M157.577 290.517C161.782 288.697 165.908 286.351 170.086 284.4L170.355 284.585L169.257 286.227C169.786 286.758 170.752 286.239 171.557 286.582L171.198 287.003L170.679 288.311L170.998 288.531L172.202 288.244L172.53 288.614C172.293 289.055 172.103 289.233 171.69 289.513L171.675 290.288L173.159 290.341C173.333 290.962 173.058 291.482 172.885 292.094C173.018 292.099 173.151 292.101 173.284 292.107C173.875 292.135 173.644 292.112 174.25 292.248C174.442 293.181 173.651 293.359 173.91 294.285L175.273 294.3L175.514 294.576L174.585 295.974L174.715 296.294L176.067 296.228L176.433 296.574C175.527 297.894 165.054 302.505 162.849 303.517C161.436 304.062 159.64 305.639 158.137 305.452C157.191 304.338 156.539 302.736 156.146 301.329L156.655 300.791L156.587 299.935C156.179 299.994 155.905 300.02 155.493 299.933C155.388 299.911 155.285 299.881 155.18 299.854C155.161 299.633 155.137 299.308 155.101 299.097C154.934 298.121 154.41 297.949 153.665 297.365L153.704 296.447L153.132 295.839C153.113 295.808 153.089 295.779 153.074 295.745C152.838 295.222 152.227 293.969 152.442 293.453C153.091 291.896 156.083 291.081 157.577 290.517Z"/>
	<path fill="#E8E6F1" d="M156.655 300.791C157.972 301.021 160.413 299.366 161.169 300.254L160.971 301.421C161.316 301.795 161.444 302.02 162.015 301.936C162.199 301.908 162.374 301.838 162.553 301.79C162.828 302.415 162.821 302.85 162.849 303.517C161.436 304.062 159.64 305.639 158.137 305.452C157.191 304.338 156.539 302.736 156.146 301.329L156.655 300.791Z"/>
	<path fill="#E8E6F1" d="M153.132 295.839C154.903 294.849 157.233 293.319 159.304 293.705L159.541 294.438C157.843 295.256 155.037 296.148 153.665 297.365L153.704 296.447L153.132 295.839Z"/>
	<path fill="#E8E6F1" d="M163.558 301.305Q163.56 301.234 163.585 301.166Q163.609 301.099 163.653 301.043Q163.698 300.987 163.757 300.948Q163.817 300.909 163.886 300.89Q163.955 300.872 164.026 300.876Q164.097 300.88 164.164 300.906Q164.23 300.932 164.285 300.978Q164.339 301.023 164.377 301.084Q164.415 301.145 164.432 301.214Q164.448 301.283 164.443 301.355Q164.437 301.426 164.409 301.492Q164.381 301.557 164.334 301.611Q164.289 301.662 164.23 301.698Q164.172 301.733 164.105 301.749Q164.039 301.765 163.971 301.761Q163.903 301.756 163.839 301.731Q163.775 301.706 163.722 301.663Q163.669 301.62 163.631 301.562Q163.593 301.505 163.575 301.439Q163.556 301.373 163.558 301.305Z"/>
	<path fill="#E2E3E6" d="M151.101 245.885C156.707 243.721 162.286 240.584 167.709 237.97C168.319 239.5 169.097 240.939 169.862 242.395L170.411 243.189L171.581 243.124C172.501 245.159 174.553 247.776 174.023 250.034C173.194 251.185 171.611 251.593 170.353 252.165C169.232 252.688 168.117 253.23 166.982 253.723C164.642 255.195 161.911 255.921 159.529 257.325C158.515 257.922 157.549 258.663 156.346 258.732C155.794 258.197 155.642 257.911 155.466 257.163C155.736 256.375 155.915 255.689 156 254.86C155.323 254.84 154.68 254.778 154.011 254.69L154.026 254.363L154.806 253.912L154.935 253.01C154.261 253.134 153.669 253.29 152.989 253.106L152.926 252.801C153.586 251.282 156.667 250.582 158.109 249.683C158.187 249.635 158.264 249.584 158.341 249.535C158.084 249.087 157.862 248.939 157.458 248.632L153.319 250.443Q152.183 248.177 151.101 245.885Z"/>
	<path fill="#143952" d="M151.101 245.885C156.707 243.721 162.286 240.584 167.709 237.97C168.319 239.5 169.097 240.939 169.862 242.395C167.111 244.144 163.965 245.163 161.151 246.781C159.968 247.36 158.53 247.886 157.458 248.632L153.319 250.443Q152.183 248.177 151.101 245.885Z"/>
	<path fill="#E8E6F1" d="M161.151 246.781C161.925 247.023 162.019 247.077 162.549 247.688C161.203 248.356 159.811 249.202 158.341 249.535C158.084 249.087 157.862 248.939 157.458 248.632C158.53 247.886 159.968 247.36 161.151 246.781Z"/>
	<path fill="#67C9D5" d="M132.719 253.001C136.786 250.945 140.899 248.917 145.09 247.126C147.385 252.02 149.907 256.819 152.099 261.756C151.478 262.781 141.844 266.854 139.849 267.957C138.044 262.999 135.33 257.587 132.719 253.001Z"/>
	<path fill="#F0D296" d="M167.485 277.564C167.806 277.766 167.981 277.859 168.28 278.131C168.938 278.729 169.111 279.17 169.158 280.019C168.454 281.125 167.847 281.33 166.744 281.923C166.04 281.782 165.703 281.466 165.141 281.048C164.861 280.304 164.734 280.086 165.083 279.308C165.517 278.336 166.583 277.982 167.485 277.564Z"/>
	<path fill="#CBCF60" d="M165.115 273.22C165.251 273.28 165.398 273.322 165.524 273.402C166.318 273.902 166.73 274.542 166.983 275.399C166.544 276.611 165.924 276.948 164.969 277.735C164.432 277.766 163.977 277.625 163.566 277.251C163.049 276.78 162.851 276.189 163 275.506C163.258 274.328 164.177 273.851 165.115 273.22Z"/>
	<path fill="#E2A13A" d="M153.214 124.24C162.343 128.624 169.768 138.323 177.57 144.736C178.206 145.458 178.713 146.12 178.981 147.06C180.062 150.861 179.605 162.583 179.312 167.008C179.298 167.216 179.284 167.424 179.263 167.631C178.017 169.995 177.076 172.566 176.045 175.032L175.06 177.159L174.796 177.906C172.833 182.439 171.091 187.098 168.944 191.543C167.686 188.897 163.453 188.067 161.131 186.587C157.87 184.509 156.436 181.602 155.619 177.962C149.231 177.961 132.731 178.873 127.692 176.687C126.359 173.916 126.893 153.076 127.138 148.816C127.236 147.125 127.313 146.184 128.634 145.008C134.891 139.007 145.882 127.908 153.214 124.24Z"/>
	<path fill="#FBFCFC" d="M153.214 124.24C162.343 128.624 169.768 138.323 177.57 144.736C174.574 146.566 171.895 148.946 169.133 151.107C167.818 152.286 166.624 153.378 164.943 154.015L163.867 155.13C161.602 157.255 158.876 159.538 156.217 161.137L155 161.943C154.321 162.573 153.961 162.916 152.993 163.028C152.251 162.762 151.9 162.53 151.354 161.962C150.839 161.545 150.279 161.219 149.716 160.871C148.637 160.496 147.227 159.799 146.587 158.836L146.739 158.508L147.222 158.65C147.662 158.162 147.821 158.194 148.427 158.005L148.498 157.777C146.806 157.003 145.402 157.957 143.656 156.686L141.935 155.083C141.512 154.819 141.058 154.203 140.699 153.833C139.566 153.384 138.606 152.947 137.75 152.064C135.128 149.483 131.566 147.28 128.634 145.008C134.891 139.007 145.882 127.908 153.214 124.24Z"/>
	<path fill="#F36E5D" d="M153.214 124.24C162.343 128.624 169.768 138.323 177.57 144.736C174.574 146.566 171.895 148.946 169.133 151.107L169.174 146.064C169.226 144.12 169.2 142.194 169.133 140.25L169.008 139.401C167.843 138.588 141.578 139.138 137.818 139.094C137.819 142.94 137.741 146.803 137.836 150.647L137.75 152.064C135.128 149.483 131.566 147.28 128.634 145.008C134.891 139.007 145.882 127.908 153.214 124.24Z"/>
	<path fill="#FFFCD1" d="M137.836 150.647L138.492 151.313C139.213 151.225 139.314 151.129 139.893 150.676C140.627 151.485 140.832 151.425 141.922 151.485C149.207 151.89 156.714 151.513 164.017 151.466C165.485 151.478 166.362 151.575 167.574 150.688L169.133 151.107C167.818 152.286 166.624 153.378 164.943 154.015L163.867 155.13C161.602 157.255 158.876 159.538 156.217 161.137L155 161.943C154.321 162.573 153.961 162.916 152.993 163.028C152.251 162.762 151.9 162.53 151.354 161.962C150.839 161.545 150.279 161.219 149.716 160.871C148.637 160.496 147.227 159.799 146.587 158.836L146.739 158.508L147.222 158.65C147.662 158.162 147.821 158.194 148.427 158.005L148.498 157.777C146.806 157.003 145.402 157.957 143.656 156.686L141.935 155.083C141.512 154.819 141.058 154.203 140.699 153.833C139.566 153.384 138.606 152.947 137.75 152.064L137.836 150.647Z"/>
	<path fill="#FFFCD1" d="M141.935 155.083C143.442 154.523 155.308 155.062 157.63 155.087C159.603 155.043 161.945 154.75 163.867 155.13C161.602 157.255 158.876 159.538 156.217 161.137L155 161.943C154.321 162.573 153.961 162.916 152.993 163.028C152.251 162.762 151.9 162.53 151.354 161.962C150.839 161.545 150.279 161.219 149.716 160.871C148.637 160.496 147.227 159.799 146.587 158.836L146.739 158.508L147.222 158.65C147.662 158.162 147.821 158.194 148.427 158.005L148.498 157.777C146.806 157.003 145.402 157.957 143.656 156.686L141.935 155.083Z"/>
	<path fill="#F0D296" d="M149.716 160.871C151.896 160.822 154.043 160.975 156.217 161.137L155 161.943C154.321 162.573 153.961 162.916 152.993 163.028C152.251 162.762 151.9 162.53 151.354 161.962C150.839 161.545 150.279 161.219 149.716 160.871Z"/>
	<path fill="#E2E3E6" d="M167.574 150.688L169.133 151.107C167.818 152.286 166.624 153.378 164.943 154.015L162.938 153.827C157.515 153.172 144.481 154.723 140.296 152.678L141.307 152.087C144.617 152.298 161.075 152.184 163.788 151.527C163.865 151.508 163.94 151.486 164.017 151.466C165.485 151.478 166.362 151.575 167.574 150.688Z"/>
	<path fill="#F0D296" d="M140.699 153.833C146.19 154 157.913 154.61 162.938 153.827L164.943 154.015L163.867 155.13C161.945 154.75 159.603 155.043 157.63 155.087C155.308 155.062 143.442 154.523 141.935 155.083C141.512 154.819 141.058 154.203 140.699 153.833Z"/>
	<path fill="#F0D296" d="M139.893 150.676C140.084 150.508 140.239 150.284 140.467 150.17C141.455 149.682 163.177 149.967 165.636 150.143C166.374 150.196 166.916 150.337 167.574 150.688C166.362 151.575 165.485 151.478 164.017 151.466C156.714 151.513 149.207 151.89 141.922 151.485C140.832 151.425 140.627 151.485 139.893 150.676Z"/>
	<path fill="#F0D296" d="M160.669 143.959C157.121 143.592 141.651 144.804 139.784 143.187C140.204 142.725 140.475 142.504 141.128 142.463C149.412 141.951 157.912 143.046 166.207 142.477L166.54 142.452L167.307 143.061L167.179 143.492C165.08 144.079 162.814 143.641 160.669 143.959Z"/>
	<path fill="#E2E3E6" d="M169.133 140.25C169.2 142.194 169.226 144.12 169.174 146.064C169.036 145.277 169.036 144.967 168.526 144.331C166.168 143.525 163.503 144.262 161.036 144.002L160.669 143.959C162.814 143.641 165.08 144.079 167.179 143.492L167.307 143.061L166.54 142.452L168.481 142.43C169.116 141.911 169.019 141.047 169.133 140.25Z"/>
	<path fill="#F0D296" d="M139.958 146.222C143.766 146.158 164.706 145.681 166.564 146.578C167.076 146.825 167.011 147.042 167.193 147.548C164.063 147.896 141.644 148.326 140.269 147.521C139.944 147.33 139.997 146.583 139.958 146.222Z"/>
	<path fill="#FAB819" d="M127.692 176.687C126.359 173.916 126.893 153.076 127.138 148.816C127.236 147.125 127.313 146.184 128.634 145.008C131.566 147.28 135.128 149.483 137.75 152.064C138.606 152.947 139.566 153.384 140.699 153.833C141.058 154.203 141.512 154.819 141.935 155.083L143.656 156.686C145.402 157.957 146.806 157.003 148.498 157.777L148.427 158.005C147.821 158.194 147.662 158.162 147.222 158.65L146.739 158.508L146.587 158.836C147.227 159.799 148.637 160.496 149.716 160.871C150.279 161.219 150.839 161.545 151.354 161.962C147.686 165.281 132.381 174.442 127.692 176.687Z"/>
	<path fill="#FAB819" d="M177.57 144.736C178.206 145.458 178.713 146.12 178.981 147.06C180.062 150.861 179.605 162.583 179.312 167.008C179.298 167.216 179.284 167.424 179.263 167.631C178.017 169.995 177.076 172.566 176.045 175.032C175.513 174.834 174.986 174.512 174.477 174.254C171.695 172.783 156.635 163.793 155 161.943L156.217 161.137C158.876 159.538 161.602 157.255 163.867 155.13L164.943 154.015C166.624 153.378 167.818 152.286 169.133 151.107C171.895 148.946 174.574 146.566 177.57 144.736Z"/>
	<path fill="#E0C99C" d="M155.619 177.962L174.796 177.906C172.833 182.439 171.091 187.098 168.944 191.543C167.686 188.897 163.453 188.067 161.131 186.587C157.87 184.509 156.436 181.602 155.619 177.962Z"/>
	<defs>
		<linearGradient id="gradient_0" gradientUnits="userSpaceOnUse" x1="197.70335" y1="76.143196" x2="222.91869" y2="41.747662">
			<stop offset="0" stop-color="#163F58"/>
			<stop offset="1" stop-color="#276280"/>
		</linearGradient>
	</defs>
	<path fill="url(#gradient_0)" d="M219.944 39.8709C219.78 38.9578 219.714 38.502 220.141 37.6256C220.786 37.1117 220.767 37.1509 221.596 37.2002C222.882 38.0405 222.965 38.6253 223.275 40.0596C224.053 41.3226 224.283 42.7078 224.958 43.9607C226.552 43.9251 228.249 43.7503 229.811 44.1038C230.154 44.6668 230.066 44.383 230.138 44.9336Q230.183 49.7781 229.969 54.6181C230.815 54.7956 231.395 54.718 231.865 55.5403C232.647 56.9076 232.072 60.1366 232.09 61.7607L229.987 62.2349C229.592 65.6169 230.438 69.32 229.884 72.6155C227.714 72.8713 225.51 72.7708 223.331 72.7192Q215.124 72.8371 206.916 72.7799L206.5 73.0034C203.744 72.2403 194.963 72.7876 191.624 72.7738C191.476 63.2934 191.851 53.738 191.463 44.2718C193.68 43.2293 202.022 44.0658 205.111 43.7607Q205.519 43.5299 205.935 43.314C207.73 42.3613 217.61 37.9499 218.986 38.3735C219.158 38.904 219.244 39.2562 219.666 39.6494C219.753 39.7302 219.851 39.7971 219.944 39.8709Z"/>
	<path fill="#082A47" d="M229.969 54.6181C230.815 54.7956 231.395 54.718 231.865 55.5403C232.647 56.9076 232.072 60.1366 232.09 61.7607C227.625 61.5436 223.398 62.4326 218.895 61.5712C218.774 60.2579 218.787 58.9263 218.762 57.608C218.668 56.6591 218.462 56.0153 218.865 55.1388L219.642 55.0901C222.064 55.0483 224.511 54.9322 226.931 55.0305C227.896 54.7849 228.978 54.7397 229.969 54.6181Z"/>
	<path fill="#E8E6F1" d="M221.262 56.4983Q221.34 56.4833 221.419 56.475Q221.497 56.4668 221.577 56.4654Q221.656 56.464 221.735 56.4695Q221.814 56.475 221.892 56.4873Q221.97 56.4996 222.047 56.5186Q222.124 56.5376 222.199 56.5633Q222.274 56.5889 222.347 56.6209Q222.419 56.6529 222.489 56.6911Q222.558 56.7293 222.624 56.7733Q222.69 56.8173 222.752 56.8669Q222.814 56.9165 222.871 56.9712Q222.928 57.026 222.98 57.0855Q223.033 57.145 223.08 57.2088Q223.127 57.2726 223.168 57.3402Q223.209 57.4078 223.245 57.4788Q223.28 57.5498 223.309 57.6235Q223.338 57.6972 223.361 57.7732Q223.383 57.8492 223.399 57.9268Q223.415 58.0045 223.424 58.0832Q223.433 58.1619 223.435 58.2411Q223.437 58.3203 223.433 58.3995Q223.428 58.4786 223.417 58.557Q223.405 58.6354 223.387 58.7125Q223.369 58.7896 223.344 58.8649Q223.319 58.9402 223.288 59.013Q223.257 59.0858 223.219 59.1557Q223.182 59.2255 223.139 59.2919Q223.095 59.3583 223.047 59.4206Q222.998 59.483 222.944 59.5409Q222.89 59.5988 222.831 59.6518Q222.772 59.7048 222.708 59.7525Q222.645 59.8002 222.578 59.8422Q222.511 59.8843 222.44 59.9204Q222.37 59.9565 222.296 59.9863Q222.223 60.0162 222.147 60.0396Q222.072 60.063 221.994 60.0797Q221.917 60.0965 221.838 60.1065Q221.759 60.1164 221.68 60.1196Q221.601 60.1227 221.522 60.119Q221.443 60.1153 221.364 60.1047Q221.286 60.0941 221.208 60.0768Q221.131 60.0595 221.056 60.0355Q220.98 60.0116 220.907 59.9812Q220.834 59.9508 220.763 59.9141Q220.693 59.8775 220.626 59.8349Q220.559 59.7924 220.497 59.7442Q220.434 59.696 220.375 59.6425Q220.317 59.589 220.263 59.5307Q220.209 59.4724 220.161 59.4096Q220.113 59.3469 220.07 59.2802Q220.027 59.2135 219.99 59.1434Q219.953 59.0732 219.923 59.0001Q219.892 58.9271 219.868 58.8516Q219.844 58.7762 219.826 58.6989Q219.808 58.6216 219.798 58.5432Q219.787 58.4647 219.783 58.3855Q219.779 58.3064 219.782 58.2272Q219.785 58.148 219.794 58.0694Q219.804 57.9907 219.82 57.9132Q219.837 57.8357 219.86 57.7599Q219.883 57.6841 219.913 57.6106Q219.942 57.5371 219.978 57.4664Q220.014 57.3957 220.056 57.3284Q220.098 57.2611 220.145 57.1977Q220.246 57.0624 220.371 56.9479Q220.495 56.8335 220.638 56.7438Q220.782 56.6541 220.939 56.5922Q221.096 56.5303 221.262 56.4983Z"/>
	<path fill="#011C2D" d="M218.762 57.608C218.668 56.6591 218.462 56.0153 218.865 55.1388L219.642 55.0901C220.191 55.1974 220.731 55.3099 221.287 55.3705L221.585 55.8024C220.815 56.2768 220.471 56.332 220.145 57.1977L218.762 57.608Z"/>
	<path fill="#457C5E" d="M219.944 39.8709C219.78 38.9578 219.714 38.502 220.141 37.6256C220.786 37.1117 220.767 37.1509 221.596 37.2002C222.882 38.0405 222.965 38.6253 223.275 40.0596C224.053 41.3226 224.283 42.7078 224.958 43.9607C222.29 44.1971 219.459 43.9975 216.773 43.99L214.3 43.9989C211.454 44.245 207.915 44.2813 205.111 43.7607Q205.519 43.5299 205.935 43.314C207.73 42.3613 217.61 37.9499 218.986 38.3735C219.158 38.904 219.244 39.2562 219.666 39.6494C219.753 39.7302 219.851 39.7971 219.944 39.8709Z"/>
	<path fill="#CBE7EA" d="M214.3 43.9989C213.379 43.8755 212.853 43.9124 212.103 43.3455L212.187 42.9172C213.07 42.446 214.359 42.1443 215.334 42.5307C215.893 42.7525 216.169 43.0237 216.584 43.4392L216.773 43.99L214.3 43.9989Z"/>
	<path fill="#082A47" d="M205.111 43.7607C207.915 44.2813 211.454 44.245 214.3 43.9989L216.773 43.99C219.459 43.9975 222.29 44.1971 224.958 43.9607C226.552 43.9251 228.249 43.7503 229.811 44.1038C230.154 44.6668 230.066 44.383 230.138 44.9336L229.717 45.6424C226.631 46.2059 193.721 46.289 192.071 45.6624L191.463 44.2718C193.68 43.2293 202.022 44.0658 205.111 43.7607Z"/>
	<path fill="#143952" d="M220.507 71.1195C223.703 70.9892 227.153 70.5498 229.884 72.6155C227.714 72.8713 225.51 72.7708 223.331 72.7192Q215.124 72.8371 206.916 72.7799C208.665 71.8731 210.7 71.9312 212.636 71.7843L212.16 71.6952C214.535 71.2575 218.487 72.1872 220.507 71.1195Z"/>
	<path fill="#4E5A5B" d="M465.325 254.242C460.65 252.363 456.999 248.91 455.046 244.238Q454.692 243.394 454.423 242.519Q454.155 241.645 453.975 240.747Q453.795 239.85 453.706 238.939Q453.617 238.029 453.619 237.113Q453.62 236.198 453.714 235.288Q453.807 234.378 453.99 233.481Q454.174 232.585 454.446 231.711Q454.718 230.837 455.076 229.995Q455.433 229.162 455.87 228.369Q456.307 227.575 456.821 226.829Q457.334 226.083 457.919 225.391Q458.504 224.699 459.154 224.068Q459.804 223.437 460.513 222.873Q461.222 222.309 461.984 221.818Q462.745 221.327 463.551 220.914Q464.357 220.501 465.2 220.169Q466.059 219.827 466.947 219.571Q467.835 219.315 468.744 219.149Q469.653 218.982 470.574 218.906Q471.496 218.83 472.42 218.846Q473.344 218.862 474.262 218.969Q475.18 219.076 476.083 219.274Q476.986 219.472 477.865 219.758Q478.744 220.043 479.59 220.415C484.122 222.447 487.54 226.332 489.222 230.98C490.908 235.636 490.495 240.842 488.381 245.297Q487.995 246.095 487.532 246.852Q487.069 247.609 486.535 248.317Q486.001 249.025 485.4 249.677Q484.798 250.329 484.136 250.919Q483.475 251.51 482.758 252.032Q482.042 252.555 481.277 253.005Q480.513 253.455 479.709 253.828Q478.904 254.201 478.067 254.494C475.207 255.476 472.156 255.661 469.162 255.343C468.57 257.698 468.037 260.354 466.799 262.47C465.581 261.924 464.581 261.647 463.253 261.516L465.325 254.242Z"/>
	<path fill="#AFCFD2" d="M466.356 223.372C469.903 222.445 472.64 222.136 476.234 223.074C480.015 224.485 482.167 226.496 484.61 229.614L485.655 229.283C485.888 229.859 486.117 230.432 486.377 230.997C488.35 235.291 487.916 238.33 486.326 242.627C486.057 243.355 485.747 244.07 485.443 244.784L484.938 244.976L484.589 244.802C481.605 248.173 478.476 251.591 473.623 251.798C471.663 251.882 469.293 251.786 467.402 251.27C465.391 250.505 463.628 249.513 462.013 248.093C459.244 245.66 457.485 242.335 457.263 238.628C457.195 238.165 457.129 237.717 457.128 237.248C457.116 233.594 458.579 229.811 461.143 227.21C462.215 225.511 464.672 224.348 466.356 223.372Z"/>
	<path fill="#CBE7EA" d="M466.356 223.372C469.903 222.445 472.64 222.136 476.234 223.074C473.643 229.309 472.206 236.387 470.362 242.888C469.57 245.684 468.916 248.769 467.402 251.27C465.391 250.505 463.628 249.513 462.013 248.093C459.244 245.66 457.485 242.335 457.263 238.628C457.195 238.165 457.129 237.717 457.128 237.248C457.116 233.594 458.579 229.811 461.143 227.21C462.215 225.511 464.672 224.348 466.356 223.372Z"/>
	<path fill="#FBFCFC" d="M461.562 228.841C463.253 227.367 464.741 226.019 467.018 225.579C467.545 225.738 467.668 225.658 467.979 226.139C465.99 229.405 461.762 231.36 461.171 235.443C460.986 236.718 461.983 242.687 461.655 242.899C461.501 242.999 461.299 242.993 461.121 243.04C459.771 242.131 458.876 239.652 458.529 238.105L458.713 236.47C459.02 233.567 460.088 231.328 461.562 228.841Z"/>
	<path fill="#E2E3E6" d="M461.143 227.21L461.319 227.934C461.197 228.08 461.073 228.224 460.952 228.372C460.622 228.775 460.476 229.008 460.435 229.543C460.804 229.24 461.074 228.844 461.562 228.841C460.088 231.328 459.02 233.567 458.713 236.47L458.529 238.105C458.089 236.411 458.565 234.507 458.632 232.77C457.925 234.566 457.937 236.521 457.35 238.367C457.322 238.454 457.292 238.541 457.263 238.628C457.195 238.165 457.129 237.717 457.128 237.248C457.116 233.594 458.579 229.811 461.143 227.21Z"/>
	<path fill="#1C363C" d="M485.655 229.283C485.888 229.859 486.117 230.432 486.377 230.997C488.35 235.291 487.916 238.33 486.326 242.627C486.057 243.355 485.747 244.07 485.443 244.784L484.938 244.976L484.589 244.802Q485.299 243.341 485.859 241.816C487.432 237.434 486.494 233.66 484.61 229.614L485.655 229.283Z"/>
	<path fill="#AFCFD2" d="M464.79 161.409C463.561 158.702 461.233 155.089 461.47 152.057C461.694 151.798 461.891 151.572 462.167 151.366C464.567 149.578 479.671 142.436 481.995 142.86C484.119 144.462 485.272 147.719 486.112 150.173L487.434 153.222L487.519 153.553L488.218 154.992C488.552 155.752 489.024 156.603 489.254 157.393L490.246 159.565C490.761 160.68 491.315 161.792 491.747 162.942C492.171 163.768 492.587 164.585 492.946 165.442C493.344 166.31 493.794 167.184 494.094 168.089C495.357 170.285 498.626 175.328 497.707 177.853C496.605 180.879 490.276 182.208 487.6 183.747L486.626 182.504Q486.516 182.487 486.41 182.454Q486.304 182.42 486.204 182.371Q486.104 182.322 486.013 182.258Q485.922 182.194 485.842 182.118Q485.761 182.041 485.693 181.953Q485.625 181.865 485.572 181.767Q485.518 181.67 485.479 181.565Q485.441 181.461 485.419 181.352Q485.397 181.243 485.392 181.132Q485.386 181.021 485.398 180.91Q485.409 180.8 485.437 180.692Q485.465 180.585 485.509 180.483Q485.553 180.381 485.612 180.287Q485.671 180.192 485.744 180.108Q485.817 180.024 485.901 179.952Q485.986 179.88 486.08 179.821L485.656 179.187C483.337 180.253 479.019 182.963 476.611 182.698C476.003 182.181 475.928 181.678 475.752 180.94L475.05 179.812C474.497 178.026 473.597 176.311 472.809 174.615C472.254 174.984 471.795 175.299 471.164 175.535Q468.357 169.435 465.631 163.299L464.79 161.409Z"/>
	<path fill="#67C9D5" d="M481.847 146.836L482.487 146.71C483.832 148.016 484.113 150.483 485.163 152.053L485.823 151.711C485.778 151.053 485.797 150.757 486.112 150.173L487.434 153.222L487.519 153.553L488.218 154.992C488.552 155.752 489.024 156.603 489.254 157.393L490.246 159.565C490.761 160.68 491.315 161.792 491.747 162.942C492.171 163.768 492.587 164.585 492.946 165.442C493.344 166.31 493.794 167.184 494.094 168.089C495.357 170.285 498.626 175.328 497.707 177.853C496.605 180.879 490.276 182.208 487.6 183.747L486.626 182.504Q486.516 182.487 486.41 182.454Q486.304 182.42 486.204 182.371Q486.104 182.322 486.013 182.258Q485.922 182.194 485.842 182.118Q485.761 182.041 485.693 181.953Q485.625 181.865 485.572 181.767Q485.518 181.67 485.479 181.565Q485.441 181.461 485.419 181.352Q485.397 181.243 485.392 181.132Q485.386 181.021 485.398 180.91Q485.409 180.8 485.437 180.692Q485.465 180.585 485.509 180.483Q485.553 180.381 485.612 180.287Q485.671 180.192 485.744 180.108Q485.817 180.024 485.901 179.952Q485.986 179.88 486.08 179.821L485.656 179.187C483.337 180.253 479.019 182.963 476.611 182.698C476.003 182.181 475.928 181.678 475.752 180.94L476.136 180.715C477.569 178.237 482.035 150.153 481.847 146.836Z"/>
	<path fill="#143952" d="M494.094 168.089C495.357 170.285 498.626 175.328 497.707 177.853C496.605 180.879 490.276 182.208 487.6 183.747L486.626 182.504Q486.516 182.487 486.41 182.454Q486.304 182.42 486.204 182.371Q486.104 182.322 486.013 182.258Q485.922 182.194 485.842 182.118Q485.761 182.041 485.693 181.953Q485.625 181.865 485.572 181.767Q485.518 181.67 485.479 181.565Q485.441 181.461 485.419 181.352Q485.397 181.243 485.392 181.132Q485.386 181.021 485.398 180.91Q485.409 180.8 485.437 180.692Q485.465 180.585 485.509 180.483Q485.553 180.381 485.612 180.287Q485.671 180.192 485.744 180.108Q485.817 180.024 485.901 179.952Q485.986 179.88 486.08 179.821L485.656 179.187C488.56 177.415 492.277 176.143 495.44 174.839Q494.122 172.123 492.916 169.356C493.141 168.934 493.368 168.54 493.644 168.15L494.094 168.089Z"/>
	<path fill="#FBFCFC" d="M486.08 179.821Q486.18 179.759 486.288 179.714Q486.396 179.669 486.51 179.642Q486.624 179.615 486.741 179.606Q486.858 179.597 486.975 179.607Q487.092 179.618 487.206 179.646Q487.319 179.675 487.427 179.721Q487.535 179.768 487.634 179.831Q487.732 179.894 487.82 179.972Q487.907 180.05 487.981 180.141Q488.055 180.232 488.114 180.334Q488.172 180.436 488.214 180.545Q488.255 180.655 488.278 180.77Q488.302 180.885 488.306 181.002Q488.311 181.12 488.297 181.236Q488.283 181.352 488.251 181.465Q488.218 181.578 488.168 181.684Q488.118 181.79 488.052 181.887Q487.985 181.984 487.905 182.068Q487.824 182.153 487.73 182.224Q487.637 182.295 487.533 182.35Q487.43 182.405 487.319 182.443Q487.208 182.481 487.092 182.5Q486.976 182.52 486.859 182.521Q486.742 182.522 486.626 182.504Q486.516 182.487 486.41 182.454Q486.304 182.42 486.204 182.371Q486.104 182.322 486.013 182.258Q485.922 182.194 485.842 182.118Q485.761 182.041 485.693 181.953Q485.625 181.865 485.572 181.767Q485.518 181.67 485.479 181.565Q485.441 181.461 485.419 181.352Q485.397 181.243 485.392 181.132Q485.386 181.021 485.398 180.91Q485.409 180.8 485.437 180.692Q485.465 180.585 485.509 180.483Q485.553 180.381 485.612 180.287Q485.671 180.192 485.744 180.108Q485.817 180.024 485.901 179.952Q485.986 179.88 486.08 179.821Z"/>
	<path fill="#000E1D" d="M487.29 156.641C487.469 155.651 487.457 155.646 488.218 154.992C488.552 155.752 489.024 156.603 489.254 157.393L490.246 159.565C490.761 160.68 491.315 161.792 491.747 162.942C491.274 163.243 490.981 163.448 490.428 163.574C489.951 162.587 489.537 161.615 489.178 160.579L488.179 158.765L487.29 156.641Z"/>
	<path fill="#082A47" d="M491.747 162.942C492.171 163.768 492.587 164.585 492.946 165.442C493.344 166.31 493.794 167.184 494.094 168.089L493.644 168.15C493.368 168.54 493.141 168.934 492.916 169.356L491.656 166.323L490.428 163.574C490.981 163.448 491.274 163.243 491.747 162.942Z"/>
	<path fill="#1C363C" d="M485.163 152.053L485.823 151.711C485.778 151.053 485.797 150.757 486.112 150.173L487.434 153.222L487.519 153.553L486.455 154.791L486.047 154.255C485.855 153.525 485.455 152.755 485.163 152.053Z"/>
	<path fill="#011C2D" d="M487.519 153.553L488.218 154.992C487.457 155.646 487.469 155.651 487.29 156.641L486.455 154.791L487.519 153.553Z"/>
	<path fill="#143952" d="M464.79 161.409C463.561 158.702 461.233 155.089 461.47 152.057C461.694 151.798 461.891 151.572 462.167 151.366C464.567 149.578 479.671 142.436 481.995 142.86C484.119 144.462 485.272 147.719 486.112 150.173C485.797 150.757 485.778 151.053 485.823 151.711L485.163 152.053C484.113 150.483 483.832 148.016 482.487 146.71L481.847 146.836L478.036 148.552Q473.24 150.776 468.378 152.852C466.899 153.578 465.431 154.289 463.902 154.905L466.666 161.063C466.603 161.956 466.751 162.515 466.112 163.17L465.631 163.299L464.79 161.409Z"/>
	<path fill="#082A47" d="M468.378 152.852C468.218 152.317 468.328 152.495 468.029 152.111C467.743 151.745 467.485 151.378 467.227 150.992C468.211 149.696 474.952 146.982 476.817 146.562L477.268 146.902C477.135 147.548 477.071 147.709 477.291 148.354L478.036 148.552Q473.24 150.776 468.378 152.852Z"/>
	<path fill="#1C363C" d="M466.666 161.063Q469.839 167.793 472.809 174.615C472.254 174.984 471.795 175.299 471.164 175.535Q468.357 169.435 465.631 163.299L466.112 163.17C466.751 162.515 466.603 161.956 466.666 161.063Z"/>
	<path fill="#143952" d="M379.392 56.9025C380.794 55.7 382.119 54.4787 383.824 53.7132C386.584 52.4745 389.463 52.2734 392.279 53.468C395.694 54.9165 397.816 57.7642 399.113 61.116Q402.55 62.0057 406.03 62.708C407.678 61.0215 409.782 60.3292 412.13 60.3566C415.493 60.3959 419.227 62.0874 421.472 64.6073C421.983 65.18 422.22 65.8087 422.44 66.5316C424.082 66.963 425.73 67.4518 427.397 67.772C430.202 65.2219 433.289 63.4832 437.225 63.7468Q437.737 63.7766 438.243 63.8582Q438.75 63.9398 439.245 64.0724Q439.741 64.205 440.22 64.3872Q440.7 64.5694 441.159 64.7993Q441.617 65.0293 442.05 65.3046Q442.483 65.5799 442.885 65.8977Q443.288 66.2156 443.656 66.5726Q444.025 66.9297 444.355 67.3223C445.651 68.8358 446.414 70.6518 446.933 72.5579Q441.015 71.1629 435.078 69.8489C434.681 71.36 434.275 72.866 433.956 74.396C433.579 75.7857 433.273 77.1331 433.055 78.559C436.979 79.7287 441.018 80.5727 445.006 81.5024C442.497 83.8958 439.319 86.1841 435.667 86.0538C432.573 85.9435 429.892 83.9365 427.935 81.687C426.744 80.3173 425.63 77.823 423.928 77.3133C416.161 75.7583 408.427 73.5943 400.726 71.7152L396.741 70.8231C395.472 72.2848 393.787 73.3869 391.981 74.0729C389.239 75.1142 386.108 75.0724 383.453 73.7899C380.044 72.1431 378.57 69.3421 377.432 65.944C381.37 66.7139 385.283 67.7393 389.19 68.6581C389.639 67.405 389.969 66.1004 390.336 64.8209L391.33 59.8901L379.392 56.9025Z"/>
	<defs>
		<linearGradient id="gradient_1" gradientUnits="userSpaceOnUse" x1="410.03989" y1="83.716896" x2="410.93051" y2="66.325424">
			<stop offset="0" stop-color="#0C282E"/>
			<stop offset="1" stop-color="#0F1F30"/>
		</linearGradient>
	</defs>
	<path fill="url(#gradient_1)" d="M390.336 64.8209C397.905 65.0607 405.585 68.0523 412.96 69.6506L427.483 72.7886C429.646 73.2608 431.919 73.499 433.956 74.396C433.579 75.7857 433.273 77.1331 433.055 78.559C436.979 79.7287 441.018 80.5727 445.006 81.5024C442.497 83.8958 439.319 86.1841 435.667 86.0538C432.573 85.9435 429.892 83.9365 427.935 81.687C426.744 80.3173 425.63 77.823 423.928 77.3133C416.161 75.7583 408.427 73.5943 400.726 71.7152L396.741 70.8231C395.472 72.2848 393.787 73.3869 391.981 74.0729C389.239 75.1142 386.108 75.0724 383.453 73.7899C380.044 72.1431 378.57 69.3421 377.432 65.944C381.37 66.7139 385.283 67.7393 389.19 68.6581C389.639 67.405 389.969 66.1004 390.336 64.8209Z"/>
	<path fill="#E0C99C" d="M406.03 62.708C407.678 61.0215 409.782 60.3292 412.13 60.3566C415.493 60.3959 419.227 62.0874 421.472 64.6073C421.983 65.18 422.22 65.8087 422.44 66.5316C416.947 65.3804 411.491 64.0035 406.03 62.708Z"/>
	<path fill="#143952" d="M472.809 174.615C473.597 176.311 474.497 178.026 475.05 179.812L475.752 180.94C475.928 181.678 476.003 182.181 476.611 182.698C479.019 182.963 483.337 180.253 485.656 179.187L486.08 179.821Q485.986 179.88 485.901 179.952Q485.817 180.024 485.744 180.108Q485.671 180.192 485.612 180.287Q485.553 180.381 485.509 180.483Q485.465 180.585 485.437 180.692Q485.409 180.8 485.398 180.91Q485.386 181.021 485.392 181.132Q485.397 181.243 485.419 181.352Q485.441 181.461 485.479 181.565Q485.518 181.67 485.572 181.767Q485.625 181.865 485.693 181.953Q485.761 182.041 485.842 182.118Q485.922 182.194 486.013 182.258Q486.104 182.322 486.204 182.371Q486.304 182.42 486.41 182.454Q486.516 182.487 486.626 182.504L487.6 183.747C485.341 184.701 480.28 188.115 478.018 187.365C475.797 186.628 474.801 183.784 473.866 181.858L473.721 180.999C472.623 179.528 471.912 177.239 471.164 175.535C471.795 175.299 472.254 174.984 472.809 174.615Z"/>
	<path fill="#457C5E" d="M212.357 35.597L214.7 33.902C215.403 35.007 216.522 36.3574 216.885 37.6036L216.461 37.6208C212.451 40.4804 206.208 41.9953 201.558 43.5786C205.328 41.154 208.595 38.0357 212.357 35.597Z"/>
</svg>
